<?xml version="1.0" standalone="no"?>
<!DOCTYPE svg PUBLIC "-//W3C//DTD SVG 20010904//EN"
 "http://www.w3.org/TR/2001/REC-SVG-20010904/DTD/svg10.dtd">
<svg version="1.0" xmlns="http://www.w3.org/2000/svg"
 width="512.000000pt" height="512.000000pt" viewBox="0 0 512.000000 512.000000"
 preserveAspectRatio="xMidYMid meet">

<g transform="translate(0.000000,512.000000) scale(0.100000,-0.100000)"
fill="#000000" stroke="none">
<path d="M1667 4615 c-421 -71 -764 -363 -905 -770 -38 -112 -54 -215 -56
-358 l-1 -138 -80 -42 c-445 -232 -688 -711 -610 -1197 72 -443 388 -799 819
-924 48 -14 94 -26 101 -26 8 0 13 16 13 45 1 53 30 113 72 148 36 31 37 37 7
37 -51 0 -187 42 -274 85 -410 202 -606 668 -462 1099 61 182 167 327 324 444
76 56 146 91 260 131 50 17 95 33 101 35 7 3 5 32 -8 93 -30 143 -25 315 13
457 56 211 228 426 431 540 378 210 867 117 1136 -218 95 -118 147 -226 192
-394 11 -43 12 -44 47 -37 65 12 266 7 342 -9 221 -48 417 -176 553 -363 l61
-85 61 9 c119 16 314 9 399 -15 320 -90 561 -333 644 -651 32 -120 35 -305 9
-416 -70 -292 -245 -508 -512 -631 -139 -65 -203 -76 -451 -81 l-223 -5 0
-119 0 -119 196 0 c301 0 438 28 639 133 710 370 825 1348 221 1875 -215 188
-464 282 -747 282 l-122 0 -76 82 c-186 200 -445 329 -721 358 -52 5 -104 10
-115 10 -15 0 -27 16 -48 69 -66 163 -236 367 -400 479 -241 165 -547 234
-830 187z"/>
<path d="M1530 2481 c-6 -13 -10 -241 -10 -671 0 -518 -3 -651 -12 -647 -7 2
-96 37 -197 77 -140 55 -188 70 -200 62 -9 -5 -16 -16 -15 -23 2 -22 595 -789
610 -789 19 0 12 -8 333 410 155 201 281 373 281 383 0 10 -7 20 -16 24 -9 3
-100 -28 -208 -71 -105 -42 -195 -76 -199 -76 -4 0 -7 299 -7 664 0 596 -2
664 -16 670 -9 3 -87 6 -174 6 -147 0 -160 -1 -170 -19z"/>
<path d="M2950 2109 c-167 -218 -300 -399 -298 -408 2 -9 11 -17 21 -19 13 -3
199 65 395 145 9 4 12 -131 12 -654 0 -499 3 -662 12 -671 17 -17 329 -17 346
0 9 9 12 172 12 671 0 523 3 658 13 654 240 -96 381 -148 394 -145 10 2 19 10
21 19 4 21 -594 799 -613 799 -8 0 -150 -176 -315 -391z"/>
</g>
</svg>
